<svg xmlns="http://www.w3.org/2000/svg" width="1511" height="973" viewBox="0 0 1511 973" role="img" aria-label="codeMap · Flow · ~/code/paneMorph"><title>codeMap · Flow · ~/code/paneMorph</title><style>text{font-family:JetBrains Mono, SFMono-Regular, Menlo, Consolas, monospace;font-size:14px;white-space:pre;font-variant-ligatures:none}.b{font-weight:700}.i{font-style:italic}.d{opacity:.6}</style><rect x="0.5" y="0.5" width="1510" height="972" rx="10" fill="#282a36" stroke="rgba(255,255,255,0.10)"/><path d="M1 38V11A10 10 0 0 1 11 1H1500A10 10 0 0 1 1510 11V38Z" fill="#21222c"/><line x1="1" y1="38.5" x2="1510" y2="38.5" stroke="rgba(255,255,255,0.10)"/><circle cx="20" cy="19" r="6" fill="#ff5f57"/><circle cx="40" cy="19" r="6" fill="#febc2e"/><circle cx="60" cy="19" r="6" fill="#28c840"/><text x="755.5" y="23.5" text-anchor="middle" fill="#8b8fa8" style="font-size:13px">codeMap · Flow · ~/code/paneMorph</text><g transform="translate(16 48)"><g shape-rendering="crispEdges"><rect x="58.8" y="0" width="50.4" height="18.2" fill="#bd93f9"/><rect x="0" y="18.2" width="344.4" height="18.2" fill="#21222c"/><rect x="0" y="36.4" width="344.4" height="18.2" fill="#21222c"/><rect x="0" y="54.6" width="344.4" height="18.2" fill="#21222c"/><rect x="0" y="72.8" width="344.4" height="18.2" fill="#21222c"/><rect x="0" y="91" width="8.4" height="18.2" fill="#21222c"/><rect x="8.4" y="91" width="327.6" height="18.2" fill="#373c52"/><rect x="336" y="91" width="8.4" height="18.2" fill="#21222c"/><rect x="562.8" y="91" width="184.8" height="18.2" fill="#373c52"/><rect x="0" y="109.2" width="344.4" height="18.2" fill="#21222c"/><rect x="0" y="127.4" width="344.4" height="18.2" fill="#21222c"/><rect x="0" y="145.6" width="344.4" height="18.2" fill="#21222c"/><rect x="0" y="163.8" width="344.4" height="18.2" fill="#21222c"/><rect x="0" y="182" width="344.4" height="18.2" fill="#21222c"/><rect x="0" y="200.2" width="344.4" height="18.2" fill="#21222c"/><rect x="0" y="218.4" width="344.4" height="18.2" fill="#21222c"/><rect x="0" y="236.6" width="344.4" height="18.2" fill="#21222c"/><rect x="0" y="254.8" width="344.4" height="18.2" fill="#21222c"/><rect x="0" y="273" width="344.4" height="18.2" fill="#21222c"/><rect x="0" y="291.2" width="344.4" height="18.2" fill="#21222c"/><rect x="0" y="309.4" width="344.4" height="18.2" fill="#21222c"/><rect x="0" y="327.6" width="344.4" height="18.2" fill="#21222c"/><rect x="0" y="345.8" width="344.4" height="18.2" fill="#21222c"/><rect x="0" y="364" width="344.4" height="18.2" fill="#21222c"/><rect x="0" y="382.2" width="344.4" height="18.2" fill="#21222c"/><rect x="0" y="400.4" width="344.4" height="18.2" fill="#21222c"/><rect x="0" y="418.6" width="344.4" height="18.2" fill="#21222c"/><rect x="0" y="436.8" width="344.4" height="18.2" fill="#21222c"/><rect x="0" y="455" width="344.4" height="18.2" fill="#21222c"/><rect x="0" y="473.2" width="344.4" height="18.2" fill="#21222c"/><rect x="0" y="491.4" width="344.4" height="18.2" fill="#21222c"/><rect x="0" y="509.6" width="344.4" height="18.2" fill="#21222c"/><rect x="0" y="527.8" width="344.4" height="18.2" fill="#21222c"/><rect x="0" y="546" width="344.4" height="18.2" fill="#21222c"/><rect x="0" y="564.2" width="344.4" height="18.2" fill="#21222c"/><rect x="0" y="582.4" width="344.4" height="18.2" fill="#21222c"/><rect x="0" y="600.6" width="344.4" height="18.2" fill="#21222c"/><rect x="0" y="618.8" width="344.4" height="18.2" fill="#21222c"/><rect x="0" y="637" width="344.4" height="18.2" fill="#21222c"/><rect x="0" y="655.2" width="344.4" height="18.2" fill="#21222c"/><rect x="0" y="673.4" width="344.4" height="18.2" fill="#21222c"/><rect x="0" y="691.6" width="344.4" height="18.2" fill="#21222c"/><rect x="0" y="709.8" width="344.4" height="18.2" fill="#21222c"/><rect x="0" y="728" width="344.4" height="18.2" fill="#21222c"/><rect x="0" y="746.2" width="344.4" height="18.2" fill="#21222c"/><rect x="0" y="764.4" width="344.4" height="18.2" fill="#21222c"/><rect x="0" y="782.6" width="344.4" height="18.2" fill="#21222c"/><rect x="0" y="800.8" width="344.4" height="18.2" fill="#21222c"/><rect x="0" y="819" width="344.4" height="18.2" fill="#21222c"/><rect x="0" y="837.2" width="344.4" height="18.2" fill="#21222c"/><rect x="0" y="855.4" width="344.4" height="18.2" fill="#21222c"/><rect x="0" y="873.6" width="344.4" height="18.2" fill="#21222c"/><rect x="0" y="891.8" width="344.4" height="18.2" fill="#21222c"/></g><path d="M378 154.7H373.8V163.8M378 154.7H386.4M386.4 154.7H394.8M394.8 154.7H403.2M403.2 154.7H411.6M411.6 154.7H420M420 154.7H428.4M428.4 154.7H436.8M436.8 154.7H445.2M445.2 154.7H453.6M453.6 154.7H462M462 154.7H470.4M470.4 154.7H478.8M478.8 154.7H487.2M487.2 154.7H495.6M495.6 154.7H504M504 154.7H512.4M512.4 154.7H520.8M520.8 154.7H529.2M529.2 154.7H537.6M537.6 154.7H546M546 154.7H554.4M554.4 154.7H562.8M562.8 154.7H571.2M571.2 154.7H579.6M579.6 154.7H588M588 154.7H596.4M596.4 154.7H604.8M604.8 154.7H613.2M613.2 154.7H621.6M621.6 154.7H630M630 154.7H638.4M638.4 154.7H646.8M646.8 154.7H655.2M655.2 154.7H663.6M663.6 154.7H672M672 154.7H680.4M680.4 154.7H688.8M688.8 154.7H697.2M697.2 154.7H705.6M705.6 154.7H714M714 154.7H722.4M722.4 154.7H730.8M730.8 154.7H739.2M739.2 154.7H747.6M747.6 154.7H756M756 154.7H764.4M764.4 154.7H772.8M772.8 154.7H781.2M781.2 154.7H789.6M789.6 154.7H798M798 154.7H806.4M806.4 154.7H814.8M814.8 154.7H823.2M823.2 154.7H831.6M831.6 154.7H840M840 154.7H848.4M848.4 154.7H856.8M856.8 154.7H865.2M865.2 154.7H873.6M873.6 154.7H882M882 154.7H890.4M890.4 154.7H898.8M898.8 154.7H907.2M907.2 154.7H915.6M915.6 154.7H924M924 154.7H932.4M932.4 154.7H936.6V163.8M373.8 163.8V182M936.6 172.9H940.8M936.6 163.8V182M373.8 182V200.2M936.6 182V200.2M378 209.3H373.8V200.2M378 209.3H386.4M386.4 209.3H394.8M394.8 209.3H403.2M403.2 209.3H411.6M411.6 209.3H420M420 209.3H428.4M428.4 209.3H436.8M436.8 209.3H445.2M445.2 209.3H453.6M453.6 209.3H462M462 209.3H470.4M470.4 209.3H478.8M478.8 209.3H487.2M487.2 209.3H495.6M495.6 209.3H504M504 209.3H512.4M512.4 209.3H520.8M520.8 209.3H529.2M529.2 209.3H537.6M537.6 209.3H546M546 209.3H554.4M554.4 209.3H562.8M562.8 209.3H571.2M571.2 209.3H579.6M579.6 209.3H588M588 209.3H596.4M596.4 209.3H604.8M604.8 209.3H613.2M613.2 209.3H621.6M621.6 209.3H630M630 209.3H638.4M638.4 209.3H646.8M646.8 209.3H655.2M655.2 209.3H663.6M659.4 209.3V218.4M663.6 209.3H672M672 209.3H680.4M680.4 209.3H688.8M688.8 209.3H697.2M697.2 209.3H705.6M705.6 209.3H714M714 209.3H722.4M722.4 209.3H730.8M730.8 209.3H739.2M739.2 209.3H747.6M747.6 209.3H756M756 209.3H764.4M764.4 209.3H772.8M772.8 209.3H781.2M781.2 209.3H789.6M789.6 209.3H798M798 209.3H806.4M806.4 209.3H814.8M814.8 209.3H823.2M823.2 209.3H831.6M831.6 209.3H840M840 209.3H848.4M848.4 209.3H856.8M856.8 209.3H865.2M865.2 209.3H873.6M873.6 209.3H882M882 209.3H890.4M890.4 209.3H898.8M898.8 209.3H907.2M907.2 209.3H915.6M915.6 209.3H924M924 209.3H932.4M932.4 209.3H936.6V200.2M991.2 245.7H987V254.8M991.2 245.7H999.6M999.6 245.7H1008M1008 245.7H1016.4M1016.4 245.7H1024.8M1024.8 245.7H1033.2M1033.2 245.7H1041.6M1041.6 245.7H1050M1050 245.7H1058.4M1058.4 245.7H1066.8M1066.8 245.7H1075.2M1075.2 245.7H1083.6M1083.6 245.7H1092M1092 245.7H1100.4M1100.4 245.7H1108.8M1108.8 245.7H1117.2M1117.2 245.7H1125.6M1125.6 245.7H1134M1134 245.7H1142.4M1142.4 245.7H1146.6V254.8M987 254.8V273M1146.6 254.8V273M991.2 282.1H987V273M991.2 282.1H999.6M999.6 282.1H1008M1008 282.1H1016.4M1016.4 282.1H1024.8M1024.8 282.1H1033.2M1033.2 282.1H1041.6M1041.6 282.1H1050M1050 282.1H1058.4M1058.4 282.1H1066.8M1066.8 282.1H1075.2M1071 282.1V291.2M1075.2 282.1H1083.6M1083.6 282.1H1092M1092 282.1H1100.4M1100.4 282.1H1108.8M1108.8 282.1H1117.2M1117.2 282.1H1125.6M1125.6 282.1H1134M1134 282.1H1142.4M1142.4 282.1H1146.6V273M537.6 336.7H533.4V345.8M537.6 336.7H546M546 336.7H554.4M554.4 336.7H562.8M562.8 336.7H571.2M571.2 336.7H579.6M579.6 336.7H588M588 336.7H596.4M596.4 336.7H604.8M604.8 336.7H613.2M613.2 336.7H621.6M621.6 336.7H630M630 336.7H638.4M638.4 336.7H646.8M646.8 336.7H655.2M655.2 336.7H663.6M663.6 336.7H672M672 336.7H680.4M680.4 336.7H688.8M688.8 336.7H697.2M697.2 336.7H705.6M705.6 336.7H714M714 336.7H722.4M722.4 336.7H730.8M730.8 336.7H739.2M739.2 336.7H747.6M747.6 336.7H756M756 336.7H764.4M764.4 336.7H772.8M772.8 336.7H777V345.8M882 336.7H882Q877.8 336.7 877.8 340.9V345.8M882 336.7H890.4M890.4 336.7H898.8M898.8 336.7H907.2M907.2 336.7H915.6M915.6 336.7H924M924 336.7H932.4M932.4 336.7H940.8M940.8 336.7H949.2M949.2 336.7H957.6M957.6 336.7H966M966 336.7H974.4M974.4 336.7H982.8M982.8 336.7H991.2M991.2 336.7H999.6M999.6 336.7H1008M1008 336.7H1016.4M1016.4 336.7H1024.8M1024.8 336.7H1033.2M1033.2 336.7H1041.6M1041.6 336.7H1050M1050 336.7H1058.4M1058.4 336.7H1066.8M1066.8 336.7H1075.2M1075.2 336.7H1083.6M1083.6 336.7H1092M1092 336.7H1100.4M1100.4 336.7H1108.8M1108.8 336.7H1117.2M1117.2 336.7H1125.6M1125.6 336.7H1134M1134 336.7H1142.4M1142.4 336.7H1150.8M1150.8 336.7H1159.2M1159.2 336.7H1167.6M1167.6 336.7H1176M1176 336.7H1184.4M1184.4 336.7H1192.8M1192.8 336.7H1201.2M1201.2 336.7H1209.6M1209.6 336.7H1218M1218 336.7H1226.4M1226.4 336.7H1234.8M1234.8 336.7H1243.2M1243.2 336.7H1251.6M1251.6 336.7H1260M1260 336.7H1268.4M1268.4 336.7H1276.8M1276.8 336.7H1285.2M1285.2 336.7H1293.6M1293.6 336.7H1302M1302 336.7H1310.4M1310.4 336.7H1318.8M1318.8 336.7H1327.2M1327.2 336.7H1335.6M1335.6 336.7H1344M1344 336.7H1352.4M1352.4 336.7H1360.8M1360.8 336.7H1369.2M1369.2 336.7H1377.6M1377.6 336.7H1386M1386 336.7H1394.4M1394.4 336.7H1402.8M1402.8 336.7H1411.2M1411.2 336.7H1419.6M1419.6 336.7H1428M1428 336.7H1436.4M1436.4 336.7H1436.4Q1440.6 336.7 1440.6 340.9V345.8M533.4 345.8V364M777 354.9H781.2M777 345.8V364M877.8 345.8V364M1440.6 345.8V364M537.6 373.1H533.4V364M537.6 373.1H546M546 373.1H554.4M554.4 373.1H562.8M562.8 373.1H571.2M571.2 373.1H579.6M579.6 373.1H588M588 373.1H596.4M596.4 373.1H604.8M604.8 373.1H613.2M613.2 373.1H621.6M621.6 373.1H630M630 373.1H638.4M638.4 373.1H646.8M646.8 373.1H655.2M655.2 373.1H663.6M659.4 373.1V382.2M663.6 373.1H672M672 373.1H680.4M680.4 373.1H688.8M688.8 373.1H697.2M697.2 373.1H705.6M705.6 373.1H714M714 373.1H722.4M722.4 373.1H730.8M730.8 373.1H739.2M739.2 373.1H747.6M747.6 373.1H756M756 373.1H764.4M764.4 373.1H772.8M772.8 373.1H777V364M882 373.1H882Q877.8 373.1 877.8 368.9V364M882 373.1H890.4M890.4 373.1H898.8M898.8 373.1H907.2M907.2 373.1H915.6M915.6 373.1H924M924 373.1H932.4M932.4 373.1H940.8M940.8 373.1H949.2M949.2 373.1H957.6M957.6 373.1H966M966 373.1H974.4M974.4 373.1H982.8M982.8 373.1H991.2M991.2 373.1H999.6M999.6 373.1H1008M1008 373.1H1016.4M1016.4 373.1H1024.8M1024.8 373.1H1033.2M1033.2 373.1H1041.6M1041.6 373.1H1050M1050 373.1H1058.4M1058.4 373.1H1066.8M1066.8 373.1H1075.2M1075.2 373.1H1083.6M1083.6 373.1H1092M1092 373.1H1100.4M1100.4 373.1H1108.8M1108.8 373.1H1117.2M1117.2 373.1H1125.6M1125.6 373.1H1134M1134 373.1H1142.4M1142.4 373.1H1150.8M1150.8 373.1H1159.2M1159.2 373.1H1167.6M1167.6 373.1H1176M1176 373.1H1184.4M1184.4 373.1H1192.8M1192.8 373.1H1201.2M1201.2 373.1H1209.6M1209.6 373.1H1218M1218 373.1H1226.4M1226.4 373.1H1234.8M1234.8 373.1H1243.2M1243.2 373.1H1251.6M1251.6 373.1H1260M1260 373.1H1268.4M1268.4 373.1H1276.8M1276.8 373.1H1285.2M1285.2 373.1H1293.6M1293.6 373.1H1302M1302 373.1H1310.4M1310.4 373.1H1318.8M1318.8 373.1H1327.2M1327.2 373.1H1335.6M1335.6 373.1H1344M1344 373.1H1352.4M1352.4 373.1H1360.8M1360.8 373.1H1369.2M1369.2 373.1H1377.6M1377.6 373.1H1386M1386 373.1H1394.4M1394.4 373.1H1402.8M1402.8 373.1H1411.2M1411.2 373.1H1419.6M1419.6 373.1H1428M1428 373.1H1436.4M1436.4 373.1H1436.4Q1440.6 373.1 1440.6 368.9V364M462 409.5H457.8V418.6M462 409.5H470.4M470.4 409.5H478.8M478.8 409.5H487.2M487.2 409.5H495.6M495.6 409.5H504M504 409.5H512.4M512.4 409.5H520.8M520.8 409.5H529.2M529.2 409.5H537.6M537.6 409.5H546M546 409.5H554.4M554.4 409.5H562.8M562.8 409.5H571.2M571.2 409.5H579.6M579.6 409.5H588M588 409.5H596.4M596.4 409.5H604.8M604.8 409.5H613.2M613.2 409.5H621.6M621.6 409.5H630M630 409.5H638.4M638.4 409.5H646.8M646.8 409.5H655.2M655.2 409.5H663.6M663.6 409.5H672M672 409.5H680.4M680.4 409.5H688.8M688.8 409.5H697.2M697.2 409.5H705.6M705.6 409.5H714M714 409.5H722.4M722.4 409.5H730.8M730.8 409.5H739.2M739.2 409.5H747.6M747.6 409.5H756M756 409.5H764.4M764.4 409.5H772.8M772.8 409.5H781.2M781.2 409.5H789.6M789.6 409.5H798M798 409.5H806.4M806.4 409.5H814.8M814.8 409.5H823.2M823.2 409.5H831.6M831.6 409.5H840M840 409.5H848.4M848.4 409.5H852.6V418.6M457.8 418.6V436.8M852.6 418.6V436.8M462 445.9H457.8V436.8M462 445.9H470.4M470.4 445.9H478.8M478.8 445.9H487.2M487.2 445.9H495.6M495.6 445.9H504M504 445.9H512.4M512.4 445.9H520.8M520.8 445.9H529.2M529.2 445.9H537.6M537.6 445.9H546M546 445.9H554.4M554.4 445.9H562.8M562.8 445.9H571.2M571.2 445.9H579.6M579.6 445.9H588M588 445.9H596.4M596.4 445.9H604.8M604.8 445.9H613.2M613.2 445.9H621.6M621.6 445.9H630M630 445.9H638.4M638.4 445.9H646.8M646.8 445.9H655.2M655.2 445.9H663.6M659.4 445.9V455M663.6 445.9H672M672 445.9H680.4M680.4 445.9H688.8M688.8 445.9H697.2M697.2 445.9H705.6M705.6 445.9H714M714 445.9H722.4M722.4 445.9H730.8M730.8 445.9H739.2M739.2 445.9H747.6M747.6 445.9H756M756 445.9H764.4M764.4 445.9H772.8M772.8 445.9H781.2M781.2 445.9H789.6M789.6 445.9H798M798 445.9H806.4M806.4 445.9H814.8M814.8 445.9H823.2M823.2 445.9H831.6M831.6 445.9H840M840 445.9H848.4M848.4 445.9H852.6V436.8M571.2 482.3H567V491.4M571.2 482.3H579.6M579.6 482.3H588M588 482.3H596.4M596.4 482.3H604.8M604.8 482.3H613.2M613.2 482.3H621.6M621.6 482.3H630M630 482.3H638.4M638.4 482.3H646.8M646.8 482.3H655.2M655.2 482.3H663.6M663.6 482.3H672M672 482.3H680.4M680.4 482.3H688.8M688.8 482.3H697.2M697.2 482.3H705.6M705.6 482.3H714M714 482.3H722.4M722.4 482.3H730.8M730.8 482.3H739.2M739.2 482.3H747.6M747.6 482.3H751.8V491.4M856.8 482.3H856.8Q852.6 482.3 852.6 486.5V491.4M856.8 482.3H865.2M865.2 482.3H873.6M873.6 482.3H882M882 482.3H890.4M890.4 482.3H898.8M898.8 482.3H907.2M907.2 482.3H915.6M915.6 482.3H924M924 482.3H932.4M932.4 482.3H940.8M940.8 482.3H949.2M949.2 482.3H957.6M957.6 482.3H966M966 482.3H974.4M974.4 482.3H982.8M982.8 482.3H991.2M991.2 482.3H999.6M999.6 482.3H1008M1008 482.3H1016.4M1016.4 482.3H1024.8M1024.8 482.3H1033.2M1033.2 482.3H1041.6M1041.6 482.3H1050M1050 482.3H1058.4M1058.4 482.3H1066.8M1066.8 482.3H1075.2M1075.2 482.3H1083.6M1083.6 482.3H1092M1092 482.3H1100.4M1100.4 482.3H1108.8M1108.8 482.3H1117.2M1117.2 482.3H1125.6M1125.6 482.3H1134M1134 482.3H1142.4M1142.4 482.3H1150.8M1150.8 482.3H1159.2M1159.2 482.3H1167.6M1167.6 482.3H1167.6Q1171.8 482.3 1171.8 486.5V491.4M567 491.4V509.6M751.8 500.5H756M751.8 491.4V509.6M852.6 491.4V509.6M1171.8 491.4V509.6M571.2 518.7H567V509.6M571.2 518.7H579.6M579.6 518.7H588M588 518.7H596.4M596.4 518.7H604.8M604.8 518.7H613.2M613.2 518.7H621.6M621.6 518.7H630M630 518.7H638.4M638.4 518.7H646.8M646.8 518.7H655.2M655.2 518.7H663.6M659.4 518.7V527.8M663.6 518.7H672M672 518.7H680.4M680.4 518.7H688.8M688.8 518.7H697.2M697.2 518.7H705.6M705.6 518.7H714M714 518.7H722.4M722.4 518.7H730.8M730.8 518.7H739.2M739.2 518.7H747.6M747.6 518.7H751.8V509.6M856.8 518.7H856.8Q852.6 518.7 852.6 514.5V509.6M856.8 518.7H865.2M865.2 518.7H873.6M873.6 518.7H882M882 518.7H890.4M890.4 518.7H898.8M898.8 518.7H907.2M907.2 518.7H915.6M915.6 518.7H924M924 518.7H932.4M932.4 518.7H940.8M940.8 518.7H949.2M949.2 518.7H957.6M957.6 518.7H966M966 518.7H974.4M974.4 518.7H982.8M982.8 518.7H991.2M991.2 518.7H999.6M999.6 518.7H1008M1008 518.7H1016.4M1016.4 518.7H1024.8M1024.8 518.7H1033.2M1033.2 518.7H1041.6M1041.6 518.7H1050M1050 518.7H1058.4M1058.4 518.7H1066.8M1066.8 518.7H1075.2M1075.2 518.7H1083.6M1083.6 518.7H1092M1092 518.7H1100.4M1100.4 518.7H1108.8M1108.8 518.7H1117.2M1117.2 518.7H1125.6M1125.6 518.7H1134M1134 518.7H1142.4M1142.4 518.7H1150.8M1150.8 518.7H1159.2M1159.2 518.7H1167.6M1167.6 518.7H1167.6Q1171.8 518.7 1171.8 514.5V509.6M520.8 555.1H516.6V564.2M520.8 555.1H529.2M529.2 555.1H537.6M537.6 555.1H546M546 555.1H554.4M554.4 555.1H562.8M562.8 555.1H571.2M571.2 555.1H579.6M579.6 555.1H588M588 555.1H596.4M596.4 555.1H604.8M604.8 555.1H613.2M613.2 555.1H621.6M621.6 555.1H630M630 555.1H638.4M638.4 555.1H646.8M646.8 555.1H655.2M655.2 555.1H663.6M663.6 555.1H672M672 555.1H680.4M680.4 555.1H688.8M688.8 555.1H697.2M697.2 555.1H705.6M705.6 555.1H714M714 555.1H722.4M722.4 555.1H730.8M730.8 555.1H739.2M739.2 555.1H747.6M747.6 555.1H756M756 555.1H764.4M764.4 555.1H772.8M772.8 555.1H781.2M781.2 555.1H789.6M789.6 555.1H793.8V564.2M898.8 555.1H898.8Q894.6 555.1 894.6 559.3V564.2M898.8 555.1H907.2M907.2 555.1H915.6M915.6 555.1H924M924 555.1H932.4M932.4 555.1H940.8M940.8 555.1H949.2M949.2 555.1H957.6M957.6 555.1H966M966 555.1H974.4M974.4 555.1H982.8M982.8 555.1H982.8Q987 555.1 987 559.3V564.2M516.6 564.2V582.4M793.8 573.3H798M793.8 564.2V582.4M894.6 564.2V582.4M987 564.2V582.4M520.8 591.5H516.6V582.4M520.8 591.5H529.2M529.2 591.5H537.6M537.6 591.5H546M546 591.5H554.4M554.4 591.5H562.8M562.8 591.5H571.2M571.2 591.5H579.6M579.6 591.5H588M588 591.5H596.4M596.4 591.5H604.8M604.8 591.5H613.2M613.2 591.5H621.6M621.6 591.5H630M630 591.5H638.4M638.4 591.5H646.8M646.8 591.5H655.2M655.2 591.5H663.6M659.4 591.5V600.6M663.6 591.5H672M672 591.5H680.4M680.4 591.5H688.8M688.8 591.5H697.2M697.2 591.5H705.6M705.6 591.5H714M714 591.5H722.4M722.4 591.5H730.8M730.8 591.5H739.2M739.2 591.5H747.6M747.6 591.5H756M756 591.5H764.4M764.4 591.5H772.8M772.8 591.5H781.2M781.2 591.5H789.6M789.6 591.5H793.8V582.4M898.8 591.5H898.8Q894.6 591.5 894.6 587.3V582.4M898.8 591.5H907.2M907.2 591.5H915.6M915.6 591.5H924M924 591.5H932.4M932.4 591.5H940.8M940.8 591.5H949.2M949.2 591.5H957.6M957.6 591.5H966M966 591.5H974.4M974.4 591.5H982.8M982.8 591.5H982.8Q987 591.5 987 587.3V582.4M478.8 627.9H474.6V637M478.8 627.9H487.2M487.2 627.9H495.6M495.6 627.9H504M504 627.9H512.4M512.4 627.9H520.8M520.8 627.9H529.2M529.2 627.9H537.6M537.6 627.9H546M546 627.9H554.4M554.4 627.9H562.8M562.8 627.9H571.2M571.2 627.9H579.6M579.6 627.9H588M588 627.9H596.4M596.4 627.9H604.8M604.8 627.9H613.2M613.2 627.9H621.6M621.6 627.9H630M630 627.9H638.4M638.4 627.9H646.8M646.8 627.9H655.2M655.2 627.9H663.6M663.6 627.9H672M672 627.9H680.4M680.4 627.9H688.8M688.8 627.9H697.2M697.2 627.9H705.6M705.6 627.9H714M714 627.9H722.4M722.4 627.9H730.8M730.8 627.9H739.2M739.2 627.9H747.6M747.6 627.9H756M756 627.9H764.4M764.4 627.9H772.8M772.8 627.9H781.2M781.2 627.9H789.6M789.6 627.9H798M798 627.9H806.4M806.4 627.9H814.8M814.8 627.9H823.2M823.2 627.9H831.6M831.6 627.9H835.8V637M474.6 637V655.2M835.8 637V655.2M474.6 655.2V673.4M835.8 655.2V673.4M474.6 673.4V691.6M835.8 673.4V691.6M478.8 700.7H474.6V691.6M478.8 700.7H487.2M487.2 700.7H495.6M495.6 700.7H504M504 700.7H512.4M512.4 700.7H520.8M520.8 700.7H529.2M529.2 700.7H537.6M537.6 700.7H546M546 700.7H554.4M554.4 700.7H562.8M562.8 700.7H571.2M571.2 700.7H579.6M579.6 700.7H588M588 700.7H596.4M596.4 700.7H604.8M604.8 700.7H613.2M613.2 700.7H621.6M621.6 700.7H630M630 700.7H638.4M638.4 700.7H646.8M646.8 700.7H655.2M655.2 700.7H663.6M659.4 700.7V709.8M663.6 700.7H672M672 700.7H680.4M680.4 700.7H688.8M688.8 700.7H697.2M697.2 700.7H705.6M705.6 700.7H714M714 700.7H722.4M722.4 700.7H730.8M730.8 700.7H739.2M739.2 700.7H747.6M747.6 700.7H756M756 700.7H764.4M764.4 700.7H772.8M772.8 700.7H781.2M781.2 700.7H789.6M789.6 700.7H798M798 700.7H806.4M806.4 700.7H814.8M814.8 700.7H823.2M823.2 700.7H831.6M831.6 700.7H835.8V691.6M579.6 737.1H575.4V746.2M579.6 737.1H588M588 737.1H596.4M596.4 737.1H604.8M604.8 737.1H613.2M613.2 737.1H621.6M621.6 737.1H630M630 737.1H638.4M638.4 737.1H646.8M646.8 737.1H655.2M655.2 737.1H663.6M663.6 737.1H672M672 737.1H680.4M680.4 737.1H688.8M688.8 737.1H697.2M697.2 737.1H705.6M705.6 737.1H714M714 737.1H722.4M722.4 737.1H730.8M730.8 737.1H735V746.2M898.8 737.1H894.6V746.2M898.8 737.1H907.2M907.2 737.1H915.6M915.6 737.1H924M924 737.1H932.4M932.4 737.1H940.8M940.8 737.1H949.2M949.2 737.1H957.6M957.6 737.1H966M966 737.1H974.4M974.4 737.1H982.8M982.8 737.1H991.2M991.2 737.1H999.6M999.6 737.1H1008M1008 737.1H1016.4M1016.4 737.1H1024.8M1024.8 737.1H1033.2M1033.2 737.1H1041.6M1041.6 737.1H1050M1050 737.1H1058.4M1058.4 737.1H1066.8M1066.8 737.1H1075.2M1075.2 737.1H1083.6M1083.6 737.1H1092M1092 737.1H1100.4M1100.4 737.1H1108.8M1108.8 737.1H1117.2M1117.2 737.1H1125.6M1125.6 737.1H1134M1134 737.1H1142.4M1142.4 737.1H1150.8M1150.8 737.1H1155V746.2M575.4 746.2V764.4M735 755.3H739.2M735 746.2V764.4M894.6 746.2V764.4M1155 746.2V764.4M579.6 773.5H575.4V764.4M579.6 773.5H588M588 773.5H596.4M596.4 773.5H604.8M604.8 773.5H613.2M613.2 773.5H621.6M621.6 773.5H630M630 773.5H638.4M638.4 773.5H646.8M646.8 773.5H655.2M655.2 773.5H663.6M659.4 773.5V782.6M663.6 773.5H672M672 773.5H680.4M680.4 773.5H688.8M688.8 773.5H697.2M697.2 773.5H705.6M705.6 773.5H714M714 773.5H722.4M722.4 773.5H730.8M730.8 773.5H735V764.4M898.8 773.5H894.6V764.4M898.8 773.5H907.2M907.2 773.5H915.6M915.6 773.5H924M924 773.5H932.4M932.4 773.5H940.8M940.8 773.5H949.2M949.2 773.5H957.6M957.6 773.5H966M966 773.5H974.4M974.4 773.5H982.8M982.8 773.5H991.2M991.2 773.5H999.6M999.6 773.5H1008M1008 773.5H1016.4M1016.4 773.5H1024.8M1024.8 773.5H1033.2M1029 773.5V782.6M1033.2 773.5H1041.6M1041.6 773.5H1050M1050 773.5H1058.4M1058.4 773.5H1066.8M1066.8 773.5H1075.2M1075.2 773.5H1083.6M1083.6 773.5H1092M1092 773.5H1100.4M1100.4 773.5H1108.8M1108.8 773.5H1117.2M1117.2 773.5H1125.6M1125.6 773.5H1134M1134 773.5H1142.4M1142.4 773.5H1150.8M1150.8 773.5H1155V764.4M529.2 809.9H525V819M529.2 809.9H537.6M537.6 809.9H546M546 809.9H554.4M554.4 809.9H562.8M562.8 809.9H571.2M571.2 809.9H579.6M579.6 809.9H588M588 809.9H596.4M596.4 809.9H604.8M604.8 809.9H613.2M613.2 809.9H621.6M621.6 809.9H630M630 809.9H638.4M638.4 809.9H646.8M646.8 809.9H655.2M655.2 809.9H663.6M663.6 809.9H672M672 809.9H680.4M680.4 809.9H688.8M688.8 809.9H697.2M697.2 809.9H705.6M705.6 809.9H714M714 809.9H722.4M722.4 809.9H730.8M730.8 809.9H739.2M739.2 809.9H747.6M747.6 809.9H756M756 809.9H764.4M764.4 809.9H772.8M772.8 809.9H781.2M781.2 809.9H789.6M789.6 809.9H793.8V819M525 819V837.2M793.8 819V837.2M529.2 846.3H525V837.2M529.2 846.3H537.6M537.6 846.3H546M546 846.3H554.4M554.4 846.3H562.8M562.8 846.3H571.2M571.2 846.3H579.6M579.6 846.3H588M588 846.3H596.4M596.4 846.3H604.8M604.8 846.3H613.2M613.2 846.3H621.6M621.6 846.3H630M630 846.3H638.4M638.4 846.3H646.8M646.8 846.3H655.2M655.2 846.3H663.6M659.4 846.3V855.4M663.6 846.3H672M672 846.3H680.4M680.4 846.3H688.8M688.8 846.3H697.2M697.2 846.3H705.6M705.6 846.3H714M714 846.3H722.4M722.4 846.3H730.8M730.8 846.3H739.2M739.2 846.3H747.6M747.6 846.3H756M756 846.3H764.4M764.4 846.3H772.8M772.8 846.3H781.2M781.2 846.3H789.6M789.6 846.3H793.8V837.2" fill="none" stroke="#50fa7b" stroke-width="1.2" stroke-linejoin="round"/><path d="M940.8 172.9H949.2M949.2 172.9H957.6M957.6 172.9H966M966 172.9H974.4M974.4 172.9H982.8M982.8 172.9H991.2M991.2 172.9H999.6M999.6 172.9H1008M1008 172.9H1016.4M1016.4 172.9H1024.8M1024.8 172.9H1033.2M1033.2 172.9H1041.6M1041.6 172.9H1050M1050 172.9H1058.4M1058.4 172.9H1066.8M1066.8 172.9H1071V182M949.2 191.1H957.6M957.6 191.1H961.8V200.2M1071 182V200.2M961.8 200.2V218.4M1071 200.2V218.4M659.4 218.4V236.6M961.8 218.4V236.6M659.4 236.6V254.8M961.8 236.6V254.8M659.4 254.8V273M961.8 254.8V273M659.4 273V291.2M961.8 273V291.2M659.4 291.2V309.4M966 300.3H961.8V291.2M966 300.3H974.4M974.4 300.3H982.8M982.8 300.3H991.2M991.2 300.3H999.6M999.6 300.3H1008M1008 300.3H1016.4M1016.4 300.3H1024.8M1024.8 300.3H1033.2M1033.2 300.3H1041.6M1041.6 300.3H1050M1050 300.3H1058.4M1058.4 300.3H1066.8M1066.8 300.3H1071V291.2M781.2 354.9H789.6M789.6 354.9H798M798 354.9H806.4M848.4 354.9H856.8M856.8 354.9H865.2M756 500.5H764.4M764.4 500.5H772.8M772.8 500.5H781.2M823.2 500.5H831.6M831.6 500.5H840M798 573.3H806.4M806.4 573.3H814.8M814.8 573.3H823.2M865.2 573.3H873.6M873.6 573.3H882M739.2 755.3H747.6M747.6 755.3H756M756 755.3H764.4M764.4 755.3H772.8M772.8 755.3H781.2M781.2 755.3H789.6M831.6 755.3H840M840 755.3H848.4M848.4 755.3H856.8M856.8 755.3H865.2M865.2 755.3H873.6M873.6 755.3H882M1029 782.6V800.8M1029 800.8V819M1029 819V837.2M1029 837.2V855.4M663.6 864.5H659.4V855.4M663.6 864.5H672M672 864.5H680.4M680.4 864.5H688.8M688.8 864.5H697.2M697.2 864.5H705.6M705.6 864.5H714M714 864.5H722.4M722.4 864.5H730.8M730.8 864.5H739.2M739.2 864.5H747.6M747.6 864.5H756M756 864.5H764.4M764.4 864.5H772.8M772.8 864.5H781.2M781.2 864.5H789.6M789.6 864.5H798M798 864.5H806.4M806.4 864.5H814.8M814.8 864.5H823.2M823.2 864.5H831.6M831.6 864.5H840M840 864.5H848.4M848.4 864.5H856.8M856.8 864.5H865.2M865.2 864.5H873.6M873.6 864.5H882M882 864.5H890.4M890.4 864.5H898.8M898.8 864.5H907.2M907.2 864.5H915.6M915.6 864.5H924M924 864.5H932.4M932.4 864.5H940.8M940.8 864.5H949.2M949.2 864.5H957.6M957.6 864.5H966M966 864.5H974.4M974.4 864.5H982.8M982.8 864.5H991.2M991.2 864.5H999.6M999.6 864.5H1008M1008 864.5H1016.4M1016.4 864.5H1024.8M1024.8 864.5H1029V855.4" fill="none" stroke="#6272a4" stroke-width="1.2" stroke-linejoin="round"/><path d="M562.8 81.9H562.8Q558.6 81.9 558.6 86.1V91M562.8 81.9H571.2M571.2 81.9H579.6M579.6 81.9H588M588 81.9H596.4M596.4 81.9H604.8M604.8 81.9H613.2M613.2 81.9H621.6M621.6 81.9H630M630 81.9H638.4M638.4 81.9H646.8M646.8 81.9H655.2M655.2 81.9H663.6M663.6 81.9H672M672 81.9H680.4M680.4 81.9H688.8M688.8 81.9H697.2M697.2 81.9H705.6M705.6 81.9H714M714 81.9H722.4M722.4 81.9H730.8M730.8 81.9H739.2M739.2 81.9H747.6M747.6 81.9H747.6Q751.8 81.9 751.8 86.1V91M558.6 91V109.2M751.8 91V109.2M562.8 118.3H562.8Q558.6 118.3 558.6 114.1V109.2M562.8 118.3H571.2M571.2 118.3H579.6M579.6 118.3H588M588 118.3H596.4M596.4 118.3H604.8M604.8 118.3H613.2M613.2 118.3H621.6M621.6 118.3H630M630 118.3H638.4M638.4 118.3H646.8M646.8 118.3H655.2M655.2 118.3H663.6M659.4 118.3V127.4M663.6 118.3H672M672 118.3H680.4M680.4 118.3H688.8M688.8 118.3H697.2M697.2 118.3H705.6M705.6 118.3H714M714 118.3H722.4M722.4 118.3H730.8M730.8 118.3H739.2M739.2 118.3H747.6M747.6 118.3H747.6Q751.8 118.3 751.8 114.1V109.2" fill="none" stroke="#f8f8f2" stroke-width="1.2" stroke-linejoin="round"/><circle cx="1079.4" cy="9.1" r="3.8" fill="none" stroke="#828cb4" stroke-width="1.3"/><path d="M571.41 95.69L579.39 100.1L571.41 104.51Z" fill="#f8f8f2"/><path d="M654.99 132.51L663.81 132.51L659.4 140.49Z" fill="#6272a4"/><path d="M948.99 186.69L941.01 191.1L948.99 195.51Z" fill="#6272a4"/><path d="M1066.59 223.51L1075.41 223.51L1071 231.49Z" fill="#6272a4"/><path d="M654.99 314.51L663.81 314.51L659.4 322.49Z" fill="#6272a4"/><path d="M550.2 350.28L554.13 354.9L550.2 359.52L546.27 354.9Z" fill="none" stroke="#50fa7b" stroke-width="1.3" stroke-linejoin="round"/><path d="M865.41 350.49L873.39 354.9L865.41 359.31Z" fill="#6272a4"/><path d="M654.99 387.31L663.81 387.31L659.4 395.29Z" fill="#6272a4"/><path d="M654.99 460.11L663.81 460.11L659.4 468.09Z" fill="#6272a4"/><path d="M583.8 495.88L587.73 500.5L583.8 505.12L579.87 500.5Z" fill="none" stroke="#50fa7b" stroke-width="1.3" stroke-linejoin="round"/><path d="M840.21 496.09L848.19 500.5L840.21 504.91Z" fill="#6272a4"/><path d="M654.99 532.91L663.81 532.91L659.4 540.89Z" fill="#6272a4"/><path d="M533.4 568.68L537.33 573.3L533.4 577.92L529.47 573.3Z" fill="none" stroke="#50fa7b" stroke-width="1.3" stroke-linejoin="round"/><path d="M882.21 568.89L890.19 573.3L882.21 577.71Z" fill="#6272a4"/><circle cx="911.4" cy="573.3" r="3.8" fill="none" stroke="#50fa7b" stroke-width="1.3"/><circle cx="911.4" cy="573.3" r="1.89" fill="#50fa7b"/><path d="M654.99 605.71L663.81 605.71L659.4 613.69Z" fill="#6272a4"/><path d="M654.99 714.91L663.81 714.91L659.4 722.89Z" fill="#6272a4"/><path d="M592.2 750.68L596.13 755.3L592.2 759.92L588.27 755.3Z" fill="none" stroke="#50fa7b" stroke-width="1.3" stroke-linejoin="round"/><path d="M882.21 750.89L890.19 755.3L882.21 759.71Z" fill="#6272a4"/><path d="M654.99 787.71L663.81 787.71L659.4 795.69Z" fill="#6272a4"/><text x="67.2 75.6 84 92.4" y="14" fill="#000000" class="b">flow</text><text x="1377.6 1386 1394.4 1402.8 1419.6 1436.4 1453.2 1461.6" y="14" fill="#828cb4">turn3·2m</text><text x="16.8 25.2 33.6 126 134.4 142.8 151.2 159.6 168 176.4 210 218.4 226.8 235.2 243.6 252 260.4" y="14" fill="#d2d2dc">mapchangeshistory</text><text x="1092 1100.4 1108.8 1117.2 1125.6 1134 1142.4 1150.8 1159.2 1176 1192.8 1201.2 1209.6 1218 1226.4 1234.8 1243.2 1251.6 1260 1268.4 1276.8 1285.2" y="14" fill="#f8f8f2">paneMorph·selector-fix</text><text x="1318.8 1327.2 1335.6 1344" y="14" fill="#ff79c6">main</text><text x="520.8 529.2 537.6 546 554.4 562.8 571.2 579.6 588 596.4 604.8 613.2 621.6 630 638.4 646.8 655.2 663.6 672 680.4 688.8 697.2 705.6 714 722.4 730.8 739.2 747.6 756 764.4 772.8 781.2 789.6 798 814.8 831.6 840 848.4 856.8 865.2 882 890.4 898.8 907.2 915.6 949.2 957.6 966 974.4 982.8 991.2 1008 1016.4 1024.8 1033.2 1050 1058.4 1066.8 1075.2" y="50.4" fill="#828cb4">panemorph/actions/open_selector.py·lines39–59calledfrommain</text><text x="8.4 16.8 25.2 33.6" y="50.4" fill="#d2d2dc" class="b">flow</text><text x="352.8 361.2 369.6 378 386.4 394.8 403.2 411.6 420 428.4 436.8 445.2 453.6 462 470.4 478.8 487.2 495.6" y="50.4" fill="#f8f8f2" class="b">finish_selection()</text><text x="1234.8" y="68.6" fill="#50fa7b">A</text><text x="1251.6 1260 1268.4 1276.8 1285.2 1327.2 1335.6 1344 1352.4 1360.8 1369.2 1377.6 1394.4 1402.8 1411.2 1419.6 1436.4 1444.8 1453.2 1461.6" y="68.6" fill="#828cb4">addedchangedthisturn</text><text x="1310.4" y="68.6" fill="#f1fa8c">M</text><text x="8.4 16.8 25.2 33.6 42 50.4 58.8 67.2 75.6 84 92.4 100.8 109.2 117.6 126 134.4 142.8 151.2 159.6 168 176.4 184.8 193.2 201.6 210 218.4 226.8 235.2 243.6 252 260.4 268.8 277.2 285.6" y="68.6" fill="#ff79c6">panemorph/actions/open_selector.py</text><text x="8.4 16.8 25.2 33.6 42 50.4 58.8 67.2 75.6 84 92.4 100.8 109.2 117.6 126 134.4" y="86.8" fill="#d2d2dc">selector_command</text><text x="310.8" y="86.8" fill="#f1fa8c">M</text><text x="310.8" y="105" fill="#50fa7b">A</text><text x="352.8" y="105" fill="#50fa7b" class="b">A</text><text x="8.4 16.8 25.2 33.6 42 50.4 58.8 67.2 75.6 84 92.4 100.8 109.2 117.6 126 134.4 588 596.4 604.8 613.2 621.6 630 638.4 646.8 655.2 663.6 672 680.4 688.8 697.2 705.6 714 722.4 730.8" y="105" fill="#f8f8f2" class="b">finish_selectionfinish_selection()</text><text x="8.4 16.8 25.2 33.6" y="123.2" fill="#d2d2dc">main</text><text x="310.8" y="123.2" fill="#f1fa8c">M</text><text x="8.4 16.8 25.2 33.6 42" y="159.6" fill="#d2d2dc" class="b">calls</text><text x="386.4 403.2 411.6 420 428.4 436.8 453.6 462 470.4 478.8 487.2 495.6 504 512.4 520.8 529.2 537.6 546 554.4 562.8 571.2 579.6 588 596.4 604.8 613.2 621.6 630 638.4 655.2 663.6 680.4 688.8 697.2 705.6 714 722.4 730.8 739.2 747.6 756 764.4 772.8 781.2 789.6 798 806.4 823.2 831.6 840 856.8 865.2 873.6 882 898.8 907.2 915.6" y="177.8" fill="#50fa7b">↻whileany(pane.get(&quot;pane_id&quot;)==selector_pane_idforpanein…</text><text x="352.8" y="177.8" fill="#50fa7b" class="b">A</text><text x="201.6 210 218.4 226.8 235.2 243.6" y="177.8" fill="#828cb4">api.py</text><text x="8.4 16.8 25.2 33.6 42 50.4 58.8 67.2 75.6 84 92.4 100.8 109.2 117.6 126 134.4 142.8 151.2 159.6 168" y="177.8" fill="#d2d2dc">HerdrClient.snapshot</text><text x="201.6 210 218.4 226.8 235.2 243.6 1083.6 1092 1100.4 1108.8" y="196" fill="#828cb4">api.pyeach</text><text x="8.4 16.8 25.2 33.6 42 50.4 58.8 67.2 75.6 84" y="196" fill="#d2d2dc">HerdrError</text><text x="201.6 210 218.4 226.8 235.2 243.6 252 260.4" y="214.2" fill="#828cb4">model.py</text><text x="8.4 16.8 25.2 33.6 42 50.4" y="214.2" fill="#d2d2dc">Choice</text><text x="201.6 210 218.4 226.8 235.2 243.6 252 260.4 268.8 277.2 672 680.4 688.8 697.2" y="232.4" fill="#828cb4">service.pydone</text><text x="8.4 16.8 25.2 33.6 42 50.4 58.8 67.2 75.6 84 92.4 100.8 109.2 117.6 126 134.4" y="232.4" fill="#d2d2dc">PaneMorphService</text><text x="201.6 210 218.4 226.8 235.2 243.6 252 260.4 268.8 277.2" y="250.6" fill="#828cb4">service.py</text><text x="8.4 16.8 25.2 33.6 42 50.4 58.8 67.2 75.6 84 92.4 100.8 109.2 117.6 126 134.4 142.8 151.2 159.6 168 176.4 184.8" y="250.6" fill="#d2d2dc">PaneMorphService.curr…</text><text x="999.6 1008 1016.4 1024.8 1033.2 1041.6 1050 1058.4 1066.8 1075.2 1083.6 1092 1100.4 1108.8 1117.2 1125.6" y="268.8" fill="#50fa7b">time.sleep(0.15)</text><text x="352.8" y="268.8" fill="#50fa7b" class="b">A</text><text x="201.6 210 218.4 226.8 235.2 243.6 252 260.4 268.8 277.2" y="268.8" fill="#828cb4">service.py</text><text x="8.4 16.8 25.2 33.6 42 50.4 58.8 67.2 75.6 84 92.4 100.8 109.2 117.6 126 134.4 142.8 151.2 159.6 168 176.4 184.8" y="268.8" fill="#d2d2dc">PaneMorphService.bring</text><text x="562.8 571.2 579.6 596.4 604.8 613.2 621.6 630 638.4 646.8 655.2 663.6 672 680.4 688.8 697.2 705.6 714 722.4 730.8 739.2 747.6 756 890.4 907.2 915.6 924 932.4 940.8 957.6 966 974.4 982.8 991.2 999.6 1008 1016.4 1024.8 1033.2 1041.6 1050 1058.4 1066.8 1075.2 1092 1100.4 1108.8 1117.2 1125.6 1134 1142.4 1150.8 1167.6 1176 1184.4 1192.8 1201.2 1209.6 1226.4 1234.8 1243.2 1251.6 1260 1268.4 1276.8 1293.6 1310.4 1318.8 1327.2 1335.6 1344 1352.4 1360.8 1377.6 1386 1394.4 1402.8 1411.2 1419.6" y="359.8" fill="#50fa7b">notresult_path.exists()✕raiseHerdrError(&quot;Theselectorexitedwithoutaresult;check…</text><text x="352.8" y="359.8" fill="#50fa7b" class="b">A</text><text x="814.8 823.2 831.6" y="359.8" fill="#828cb4">yes</text><text x="672 680.4" y="396.2" fill="#828cb4">no</text><text x="470.4 478.8 487.2 495.6 504 512.4 529.2 546 554.4 562.8 571.2 579.6 588 596.4 604.8 613.2 621.6 630 638.4 646.8 655.2 663.6 672 680.4 688.8 697.2 705.6 714 722.4 730.8 739.2 747.6 756 764.4 772.8 781.2 789.6 798 806.4 814.8 823.2 831.6" y="432.6" fill="#50fa7b">result=json.loads(result_path.read_text())</text><text x="352.8" y="432.6" fill="#50fa7b" class="b">A</text><text x="596.4 604.8 613.2 621.6 630 638.4 646.8 663.6 672 688.8 697.2 705.6 714 722.4 730.8 865.2 882 890.4 898.8 907.2 915.6 932.4 940.8 949.2 957.6 966 974.4 982.8 991.2 999.6 1008 1016.4 1024.8 1033.2 1041.6 1050 1058.4 1066.8 1075.2 1083.6 1092 1100.4 1108.8 1117.2 1125.6 1134 1142.4 1150.8" y="505.4" fill="#50fa7b">&quot;error&quot;inresult✕raiseHerdrError(result[&quot;error&quot;])</text><text x="352.8" y="505.4" fill="#50fa7b" class="b">A</text><text x="789.6 798 806.4" y="505.4" fill="#828cb4">yes</text><text x="672 680.4" y="541.8" fill="#828cb4">no</text><text x="546 554.4 562.8 571.2 579.6 588 596.4 604.8 613.2 621.6 630 638.4 646.8 655.2 663.6 672 680.4 688.8 697.2 705.6 722.4 730.8 747.6 756 764.4 772.8 924 932.4 940.8 949.2 957.6 966" y="578.2" fill="#50fa7b">result.get(&quot;choice&quot;)isNonereturn</text><text x="352.8" y="578.2" fill="#50fa7b" class="b">A</text><text x="831.6 840 848.4" y="578.2" fill="#828cb4">yes</text><text x="672 680.4" y="614.6" fill="#828cb4">no</text><text x="487.2 495.6 504 512.4 520.8 529.2 546 562.8 571.2 579.6 588 596.4 604.8 613.2 621.6 630 638.4 646.8 655.2 663.6 672 680.4 688.8 697.2 705.6 714 722.4 730.8 739.2 747.6 756 764.4 772.8" y="651" fill="#50fa7b">choice=Choice(**result[&quot;choice&quot;])</text><text x="352.8" y="651" fill="#50fa7b" class="b">A</text><text x="487.2 495.6 504 512.4 520.8 529.2 537.6 554.4 571.2 579.6 588 596.4 604.8 613.2 621.6 630 638.4 646.8 655.2 663.6 672 680.4 688.8 697.2 705.6 714 722.4 730.8 739.2 747.6 756 764.4" y="669.2" fill="#50fa7b">service=PaneMorphService(client)</text><text x="352.8" y="669.2" fill="#50fa7b" class="b">A</text><text x="487.2 495.6 504 512.4 520.8 529.2 546 562.8 571.2 579.6 588 596.4 604.8 613.2 621.6 630 638.4 646.8 655.2 663.6 672 680.4 688.8 697.2 705.6 714 722.4 730.8 739.2 747.6 756 764.4 772.8 781.2 789.6 798 806.4 814.8" y="687.4" fill="#50fa7b">source=service.current(source_pane_id)</text><text x="352.8" y="687.4" fill="#50fa7b" class="b">A</text><text x="604.8 613.2 621.6 630 646.8 655.2 672 680.4 688.8 697.2 705.6 714 907.2 915.6 924 932.4 940.8 949.2 957.6 966 974.4 982.8 991.2 999.6 1008 1016.4 1024.8 1033.2 1041.6 1050 1058.4 1066.8 1083.6 1092 1100.4 1108.8 1117.2 1125.6 1134" y="760.2" fill="#50fa7b">mode==&quot;send&quot;service.send(source,choice)</text><text x="352.8" y="760.2" fill="#50fa7b" class="b">A</text><text x="798 806.4 814.8" y="760.2" fill="#828cb4">yes</text><text x="672 680.4" y="796.6" fill="#828cb4">no</text><text x="537.6 546 554.4 562.8 571.2 579.6 588 596.4 604.8 613.2 621.6 630 638.4 646.8 655.2 663.6 672 680.4 688.8 697.2 705.6 722.4 730.8 739.2 747.6 756 764.4 772.8" y="833" fill="#50fa7b">service.bring(source,choice)</text><text x="352.8" y="833" fill="#50fa7b" class="b">A</text><text x="67.2 75.6 84 92.4 109.2 117.6 126 134.4 151.2 168 176.4 184.8 193.2 210 218.4 226.8 235.2 252 260.4" y="887.6" fill="#828cb4">lastturn·done9:44PM</text><text x="8.4 16.8 25.2 33.6 42" y="887.6" fill="#d2d2dc" class="b">scope</text><text x="8.4 16.8 25.2 42 50.4 58.8 67.2 75.6 84 92.4 100.8 109.2 369.6 378 386.4 394.8 411.6 428.4 436.8 445.2 453.6 470.4 478.8 495.6 504 512.4 520.8 562.8 571.2 579.6 588 630 638.4 646.8 655.2 672 680.4 697.2 705.6 714 722.4 764.4 772.8 781.2 823.2 831.6 840 848.4 856.8 865.2 873.6 915.6 924 932.4 940.8" y="905.8" fill="#828cb4">tabfunctionsopenacallinFlowbackeditatlinemapchangeskeys</text><text x="352.8 546 613.2 747.6 806.4 898.8" y="905.8" fill="#d2d2dc">⏎⌫e13?</text></g></svg>
